<?xml version="1.0" encoding="utf-8"?>
<!-- Generator: Adobe Illustrator 24.0.0, SVG Export Plug-In . SVG Version: 6.00 Build 0)  -->
<svg version="1.1" id="Layer_1" xmlns="http://www.w3.org/2000/svg" xmlns:xlink="http://www.w3.org/1999/xlink" x="0px" y="0px"
	 viewBox="0 0 29.1 29.1" style="enable-background:new 0 0 29.1 29.1;" xml:space="preserve">
<style type="text/css">
	.st0{stroke:#FFFFFF;stroke-miterlimit:10;}
	.st1{fill:#FFFFFF;}
</style>
<circle class="st0" cx="14.5" cy="14.5" r="14.1"/>
<path class="st1" d="M18.2,7.2c0,0.2,0.1,0.5,0.1,0.7c0.1,1.4,0.1,2.7,0.2,4.1c0,0.5,0.2,0.8,0.7,0.9c1.7,0.6,3.3,1.2,5,1.8
	c0.7,0.3,0.8,0.6,0.1,1c-1.2,0.7-2.4,1.3-3.6,1.8c-1.2,0.4-1.6,1.1-1.8,2.3c-0.2,1.6-0.7,3.1-1.2,4.6c-0.1,0.2-0.2,0.4-0.4,0.5
	c-0.2-0.1-0.4-0.3-0.6-0.4c-1-1.7-2.1-3.4-3-4.9c-2.2,0.4-4.4,0.8-6.6,1.2c-0.2,0-0.4,0.1-0.5,0c-0.4,0-0.6-0.2-0.3-0.6
	c0.6-0.8,1.2-1.5,1.8-2.3c0.6-0.7,1.1-1.4,1.7-2c0.4-0.4,0.4-0.7,0.2-1.2c-0.6-1.4-1.2-2.9-1.8-4.4c-0.1-0.2,0-0.4-0.1-0.6
	c0.2,0,0.5,0,0.7,0c1.5,0.6,3.1,1.2,4.6,1.9c0.5,0.2,0.7,0.1,1-0.3c1.1-1.5,2.3-2.9,3.4-4.3C18,7.1,18.1,7.1,18.2,7.2z"/>
</svg>
