<?xml version="1.0" encoding="utf-8"?>
<!-- Generator: Adobe Illustrator 24.0.0, SVG Export Plug-In . SVG Version: 6.00 Build 0)  -->
<svg version="1.1" id="Layer_1" xmlns="http://www.w3.org/2000/svg" xmlns:xlink="http://www.w3.org/1999/xlink" x="0px" y="0px"
	 viewBox="0 0 165.4 29.7" style="enable-background:new 0 0 165.4 29.7;" xml:space="preserve">
<path d="M66.5,14.8c0,4.3,0,8.5-0.1,12.8c0,0.6-0.7,1.2-1.1,1.9c-0.3-0.6-1-1.2-1-1.8c-0.1-8.6-0.1-17.2,0-25.9
	c0-0.6,0.7-1.2,1.1-1.9c0.3,0.7,1,1.3,1,2C66.5,6.3,66.5,10.6,66.5,14.8z"/>
<path d="M39.8,14.8c0-4.2-0.1-8.4,0.1-12.6c0-0.7,0.7-1.5,1.1-2.2c0.4,0.7,1,1.5,1,2.2c0,8.4,0,16.8,0,25.2c0,0.7-0.7,1.4-1,2.2
	c-0.4-0.7-1-1.4-1-2.2C39.8,23.2,39.8,19,39.8,14.8L39.8,14.8z"/>
<path d="M61.8,14.8c0,4.2,0.1,8.4,0,12.6c0,0.7-0.7,1.4-1.1,2.2c-0.4-0.7-1-1.4-1-2.2c-0.1-8.4-0.1-16.8,0-25.2c0-0.7,0.7-1.5,1-2.2
	c0.3,0.7,1,1.5,1,2.2C61.8,6.4,61.8,10.6,61.8,14.8L61.8,14.8z"/>
<path d="M0,14.9c0-4.3,0-8.5,0.1-12.8c0-0.7,0.7-1.3,1-1.9c0.4,0.7,1,1.3,1,2c0.1,8.5,0.1,16.9,0,25.4c0,0.7-0.6,1.3-0.9,2
	c-0.4-0.7-1.1-1.4-1.1-2.1C0,23.3,0,19.1,0,14.9z"/>
<path d="M4.7,14.7c0-4.3,0-8.5,0-12.8c0-0.6,0.7-1.2,1.1-1.9c0.3,0.6,0.9,1.2,0.9,1.8C6.8,10.5,6.8,19,6.8,27.5c0,0.7-0.7,1.4-1.1,2
	c-0.3-0.7-0.9-1.3-0.9-2C4.6,23.3,4.7,19,4.7,14.7z"/>
<path d="M46.7,14.7c0,4.2,0.1,8.4,0,12.6c0,0.7-0.6,1.5-1,2.2c-0.4-0.7-1.1-1.4-1.1-2.1c-0.1-8.3-0.1-16.6,0-24.9
	c0-0.8,0.6-1.7,1-2.5c0.4,0.8,1,1.6,1.1,2.4C46.7,6.5,46.7,10.6,46.7,14.7z"/>
<path d="M119,15c0-4.2-0.1-8.4,0.1-12.6c0-0.7,0.7-1.4,1.1-2.1c0.3,0.7,1,1.3,1,2c0.1,8.5,0.1,16.9,0,25.4c0,0.7-0.6,1.3-0.9,2
	c-0.4-0.7-1.1-1.4-1.1-2.1C119,23.3,119,19.2,119,15L119,15z"/>
<path d="M160.8,14.9c0,4.2,0.1,8.4-0.1,12.6c0,0.7-0.7,1.4-1.1,2.1c-0.3-0.7-0.9-1.3-0.9-2c-0.1-8.5-0.1-16.9,0-25.4
	c0-0.7,0.6-1.3,1-2c0.4,0.7,1.1,1.4,1.1,2.1C160.8,6.6,160.8,10.8,160.8,14.9L160.8,14.9z"/>
<path d="M163.2,15c0-4.3,0-8.5,0-12.8c0-0.6,0.7-1.3,1-1.9c0.4,0.6,1,1.3,1,1.9c0.1,8.5,0.1,17.1,0,25.6c0,0.6-0.8,1.2-1.2,1.8
	c-0.3-0.6-0.9-1.2-0.9-1.8C163.2,23.5,163.3,19.2,163.2,15C163.3,15,163.2,15,163.2,15z"/>
<path d="M84.1,15c0-4.3,0-8.5,0.1-12.8c0-0.6,0.7-1.2,1.1-1.9c0.3,0.6,1,1.2,1,1.8c0.1,8.6,0.1,17.2,0,25.8c0,0.6-0.7,1.1-1,1.7
	c-0.4-0.6-1-1.3-1-1.9C84.1,23.5,84.2,19.2,84.1,15C84.2,15,84.2,15,84.1,15z"/>
<path d="M141,15c0,4.3,0,8.5-0.1,12.8c0,0.6-0.7,1.2-1.1,1.9c-0.3-0.6-1-1.2-1-1.8c-0.1-8.5-0.1-17.1-0.1-25.6c0-0.7,0.7-1.3,1-2
	c0.4,0.7,1,1.4,1.1,2.1C141,6.6,140.9,10.8,141,15L141,15z"/>
<path d="M145.6,15.3c0,4.2,0,8.4,0,12.6c0,0.6-0.6,1.2-1,1.7c-0.4-0.6-1-1.1-1.1-1.7c-0.1-8.7-0.1-17.4,0-26.1
	c0-0.5,0.7-1.1,1.1-1.6c0.3,0.6,0.9,1.2,0.9,1.8C145.6,6.5,145.6,10.9,145.6,15.3L145.6,15.3z"/>
<path d="M22.2,15c0,4.3,0,8.5,0,12.8c0,0.6-0.6,1.3-1,1.9c-0.4-0.6-1-1.3-1-1.9c-0.1-8.5-0.1-17.1,0-25.6c0-0.6,0.6-1.2,1-1.8
	c0.4,0.6,1.1,1.2,1.1,1.8C22.2,6.5,22.2,10.8,22.2,15z"/>
<path d="M104,14.9c0-4.2,0-8.4,0-12.6c0-0.7,0.6-1.4,0.9-2c0.4,0.7,1,1.4,1.1,2.1c0.1,8.4,0.2,16.7,0.2,25.1c0,0.7-0.7,1.4-1.1,2.1
	c-0.3-0.7-1-1.4-1-2.2C103.9,23.3,104,19.1,104,14.9z"/>
<path d="M125.8,15c0,4.3,0,8.5,0,12.8c0,0.6-0.6,1.2-0.9,1.8c-0.4-0.6-1.1-1.2-1.1-1.8c-0.1-8.5-0.1-17.1,0-25.6
	c0-0.6,0.6-1.2,0.9-1.8c0.4,0.6,1,1.2,1,1.9C125.8,6.5,125.8,10.7,125.8,15L125.8,15z"/>
<path d="M81.6,14.8c0,4.2,0,8.4,0,12.6c0,0.8-0.6,1.5-0.9,2.2c-0.4-0.7-1-1.4-1.1-2.1c-0.1-8.4-0.1-16.8-0.1-25.2
	c0-0.7,0.6-1.4,0.9-2c0.4,0.7,1,1.4,1.1,2.1C81.5,6.6,81.5,10.7,81.6,14.8C81.5,14.8,81.5,14.8,81.6,14.8z"/>
<path d="M101.3,15c0,4.3,0,8.5,0,12.8c0,0.6-0.6,1.2-0.9,1.8c-0.4-0.6-1.1-1.2-1.1-1.8c-0.1-8.5-0.1-16.9-0.1-25.4
	c0-0.7,0.7-1.4,1.1-2c0.3,0.7,0.9,1.4,0.9,2.1C101.4,6.6,101.3,10.8,101.3,15L101.3,15z"/>
<path d="M24.8,14.9c0-4.1-0.1-8.2,0-12.3c0-0.7,0.7-1.4,1-2.2c0.3,0.7,1,1.5,1,2.2c0.1,8.4,0.1,16.7,0,25.1c0,0.7-0.6,1.4-0.9,2
	c-0.4-0.7-1.1-1.4-1.1-2.1C24.7,23.4,24.8,19.1,24.8,14.9z"/>
</svg>
