<?xml version="1.0" encoding="utf-8"?>
<!-- Generator: Adobe Illustrator 24.0.0, SVG Export Plug-In . SVG Version: 6.00 Build 0)  -->
<svg version="1.1" id="Layer_1" xmlns="http://www.w3.org/2000/svg" xmlns:xlink="http://www.w3.org/1999/xlink" x="0px" y="0px"
	 viewBox="0 0 73.4 79.4" style="enable-background:new 0 0 73.4 79.4;" xml:space="preserve">
<g id="H84UqL.tif">
	<g>
		<path d="M54.9,79.4c-0.4-0.9-0.8-1.8-1.3-2.6c-0.2-0.3-0.5-0.5-0.8-0.6c-0.7-0.2-1.3-0.2-2-0.3c-0.3-0.1-0.6-0.2-1.2-0.4
			c0.7-0.5,1.3-1,1.9-1.3c0.9-0.4,1.2-1,1.2-2c0-0.5,0-1,0-1.9c1.2,0.8,2,1.4,2.9,2c0.8-0.5,1.7-1,2.5-1.6c0.1,0.1,0.2,0.1,0.3,0.2
			c-0.2,0.7-0.4,1.4-0.4,2.1c0,0.5,0,1.1,0.2,1.5c0.4,0.9,1,1.6,1.6,2.4c-0.1,0.1-0.1,0.2-0.2,0.3c-1-0.2-2-0.4-2.9-0.5
			c-0.4,0.9-0.8,1.8-1.1,2.7C55.2,79.4,55.1,79.4,54.9,79.4z"/>
		<path d="M29.5,62.5c-6,2.6-12.1,4.4-18.5,5.5c-2.7,0.5-5.5,0.9-8.3,1.2c-0.9,0.1-1.8,0.2-2.4-0.7c-0.6-0.9-0.4-1.9,0.3-2.7
			C2,64.2,3.5,62.5,5.1,61c4.8-4.7,9.6-9.4,14.4-14.1c0.7-0.7,1.3-1,2.2-0.4c1.3,1,2.9,1.9,3.9,3.2C28.5,53.4,29.1,58,29.5,62.5z"/>
		<path d="M30.5,35.9c-1.6,1.1-2.8,2.2-4.3,2.9c-1.5,0.8-3,0.6-4.4-0.6c-1.3-1.2-1.6-3-0.7-4.6c1.6-2.9,5.1-4,8.1-2.6
			c0.3,0.1,0.5,0.3,0.9,0.5c1.1-3.1,1.3-6.1,0.4-9.2c-1-3.2-3.2-5.3-6.2-6.9c0.7-0.8,1.2-1.4,1.8-2c0.1-0.1,0.5,0,0.7,0.1
			c6.2,4,8.5,12.2,5.4,18.9c-0.2,0.4-0.3,1.1-0.1,1.5c2.4,4.8,0.5,10.3-4.5,12.6c-0.5,0.2-1,0.5-1.6,0.7c-0.3-0.3-0.6-0.6-0.8-0.9
			c-0.6-0.9-0.4-1.5,0.7-1.9c2.3-1,4.3-2.4,4.7-5.2C30.8,38.1,30.6,37,30.5,35.9z M28.8,34c-1.7-1.4-3.4-1.3-4.4,0.2
			c-0.3,0.4-0.4,1.2-0.2,1.6c0.2,0.4,1,0.7,1.5,0.7C27.2,36.4,28.2,35.4,28.8,34z"/>
		<path d="M53.2,69.6c-0.6-3.8-2.3-6.6-5-8.6c-0.6,1.5-1,3-1.8,4.3c-1.3,1.9-3.4,2.6-5.6,2.3c-1.7-0.2-2.8-1.4-3.4-3.1
			c-0.5-1.6,0-2.9,1.2-3.9c1-0.8,2.1-1.5,3.4-2.3c-3-0.2-5.8,0.3-8.5,1.2c-0.4-0.7-0.8-1.4-1.3-2.2C34,56.1,36,55.5,38,55
			c1.8-0.4,3.6-0.4,5.4,0.2c0.7,0.3,1.6,0.6,2.1,1.2c1.1,1.3,2.5,1.9,4,2.6c3.5,1.7,5.6,4.6,6.2,8.5c0.1,0.7,0.1,1.1-0.8,1.3
			C54.4,69,53.9,69.3,53.2,69.6z M44.4,59.8c-1.3,0.8-2.6,1.5-3.8,2.3c-0.8,0.6-1.2,1.5-0.9,2.4c0.1,0.4,0.7,1,1,1
			C43.2,65.5,45.3,62.4,44.4,59.8z"/>
		<path d="M71.4,0.3c-0.3,1.4-0.7,2.8-1,4.3c1,0.8,2,1.6,3.1,2.4c0,0.2,0,0.3,0,0.5c-1,0.2-2,0.6-3,0.7c-0.9,0.1-1.4,0.3-1.6,1.4
			c-0.2,1.3-0.8,2.5-1.3,3.9c-1.3-1.3-1.8-2.7-2.2-4c-0.2-0.7-0.5-1-1.3-1.1c-1,0-2-0.3-3-0.6c-1.1-0.3-1.1-0.5-0.2-1.3
			c0.6-0.6,1.3-1.2,1.9-1.8c0.5-0.4,0.7-0.9,0.5-1.6c-0.2-0.7-0.3-1.5-0.5-2.2c-0.2-0.9,0.2-1,0.9-0.8c0.8,0.3,1.6,0.5,2.3,0.9
			c0.8,0.5,1.3,0.4,2.1,0.1c1-0.4,2-0.7,3-1C71.1,0.2,71.2,0.2,71.4,0.3z"/>
		<path d="M33.4,52.3c-0.7-0.5-1.4-1.1-2.3-1.7c6.7-6.7,14.6-10.5,24-11.3c0,0.6,0,1.1,0,1.5c0,0.4,0,0.8,0,1.3
			c-4,0.8-7.8,2.1-11.5,3.8C40.1,47.6,36.6,49.5,33.4,52.3z"/>
		<path d="M65.6,39.1c-0.6,0.5-1.1,1-1.7,1.5c-0.7,0.5-0.9,1.1-0.4,1.9c0.4,0.7,0.6,1.5,0.9,2.5c-1.6-0.2-2.6-1.2-3.6-1.9
			c-0.9,0.8-1.8,1.5-2.7,2.2c-0.1-0.1-0.3-0.2-0.4-0.3c0.4-1.2,0.7-2.5,1.1-3.8c-1-0.7-2-1.4-3-2.1c0-0.1,0-0.2,0.1-0.4
			c0.9-0.2,1.8-0.5,2.7-0.7c0.6-0.1,0.9-0.3,1.1-1c0.2-0.8,0.6-1.5,1-2.2c0.1,0,0.3,0,0.4,0c0.4,0.8,0.8,1.7,1.1,2.5
			c0.2,0.7,0.6,1,1.4,1c0.6-0.1,1.3,0,2,0.1C65.5,38.8,65.6,38.9,65.6,39.1z"/>
		<path d="M25,6.5c-0.3,1-0.6,1.9-0.9,3c0.5,0.7,1.2,1.4,2.1,2.5c-1.2,0-2.1,0-3,0c-0.4,0.8-0.9,1.7-1.3,2.5c-0.1,0-0.3,0-0.4,0
			c-0.3-1-0.7-2.1-1-3c-1.1-0.2-2-0.5-3-0.7c0-0.1,0-0.3,0-0.4c0.6-0.3,1.2-0.6,1.8-0.9c0-0.9,0-1.8,0-2.8c0.3,0.1,0.5,0.1,0.5,0.2
			c1.3,1.4,2.6,1.1,3.9,0c0.2-0.2,0.6-0.3,0.9-0.5C24.7,6.4,24.9,6.5,25,6.5z"/>
	</g>
</g>
</svg>
