<?xml version="1.0" encoding="utf-8"?>
<!-- Generator: Adobe Illustrator 24.0.0, SVG Export Plug-In . SVG Version: 6.00 Build 0)  -->
<svg version="1.1" id="Layer_1" xmlns="http://www.w3.org/2000/svg" xmlns:xlink="http://www.w3.org/1999/xlink" x="0px" y="0px"
	 viewBox="0 0 272.7 76.7" style="enable-background:new 0 0 272.7 76.7;" xml:space="preserve">
<g id="RTQWPW.tif">
	<g>
		<path d="M17.3,39.6c2.3,0.1,4.6,0.2,6.8,0.3c2.5,0.2,5.1,0.5,7.6,0.6c5.3,0.1,10.6,0.1,16,0.2c0.9,0,1.8-0.1,2.7-0.2
			c-0.2-0.8-0.6-1.6-0.7-2.5c-0.1-1.3-0.2-2.6,0.1-3.8c0.9-3.6,1.9-7.2,2.9-10.8c1-3.4,2-6.7,3-10c0,0,0-0.1,0-0.2
			c-0.1,0-0.2,0-0.3,0c-2.6,1.2-5.4,2-8.3,2.6c-2.6,0.5-5.2,0.8-7.8,0.6c-1.3-0.1-2.6-0.5-3.7-1.3c-1.3-0.9-1.7-2.3-0.4-3.7
			c0.9-1,2-1.6,3.2-2c2.6-1,5.2-1.5,7.9-1.9C49.5,7.1,52.8,7,56,7.1c0.2,0,0.4,0.1,0.7,0.1c0.6,0.1,1.1,0,1.3-0.7
			c0.5-1.6,1.3-3.2,2.5-4.5c0.8-0.9,2.2-1.2,3.1-0.7c0.9,0.5,1.4,1.9,1.1,3C64.5,5,64.2,5.6,64,6.1c-0.3,0.6-0.6,1.1-1,1.7
			c0.8,0.2,1.7,0.5,2.5,0.7c1.7,0.5,3.3,1.2,4.5,2.5c0.7,0.7,1.4,1.4,1.8,2.3c1.3,2.6,0.5,5.2-2.2,6.4c-1.6,0.7-3.3,1.1-5,1.5
			c-1.1,0.3-2.3,0.4-3.7,0.6c0.3,0.2,0.5,0.3,0.7,0.4c2,0.7,4,1.5,5.6,2.8c1.8,1.5,3.1,3.3,2.9,5.8c-0.2,1.9-1,3.6-2.3,5
			c-1.9,2.1-4.2,3.3-6.9,4.1c-2.2,0.7-4.3,1.2-6.7,1.5c0.4,0.1,0.8,0.4,1.2,0.4c2.3,0.2,4.6,0.2,6.9-0.2c2.4-0.5,4.7-1.1,6.8-2.3
			c1.5-0.8,2.8-1.8,4.1-2.8c0.2-0.2,0.5-0.3,0.7-0.5c0.7-0.7,1.2-1.4,1.3-2.5c0.3-2.5,1-4.9,1.7-7.3c0.4-1.3,1-2.6,1.6-3.9
			c0.2-0.5,0.8-1,1.3-0.7c0.5,0.2,1,0.7,1.2,1.2c0.5,1.4,0.3,2.8,0,4.3c-0.6,2.8-2,5.2-3.9,7.3c-0.6,0.7-1.2,1.5-1,2.6
			c0.1,0.3-0.1,0.7-0.2,1.1c1.1-0.6,1.8-1.4,2.5-2.2c1.8-2.3,3.7-4.6,5.3-7.1c1.2-1.9,2.1-4.1,3.1-6.2c0.1-0.2-0.1-0.6-0.2-0.7
			c-0.9-1-1.1-2.1-0.5-3.2c0.2-0.4,0.7-0.8,1-0.8c0.4,0,0.9,0.3,1.2,0.7c0.5,0.8,0.7,1.6,0.3,2.5c-0.2,0.5,0,0.7,0.4,0.7
			c1.3,0,2.7,0,4,0c1.3,0,1.9,0.9,1.3,2.1c-1.3,2.5-2.6,5-3.8,7.6c-0.9,1.9-1.6,3.9-2.4,5.8c-0.1,0.2,0,0.4-0.1,0.6
			c0.1,0.1,0.1,0.1,0.2,0.2c0.5-0.4,1.1-0.8,1.6-1.3c2.6-2.4,4.6-5.3,6.6-8.3c1.2-1.8,2.3-3.8,3.5-5.7c-0.9-0.3-1.7-0.6-2.4-0.9
			c-0.6-0.3-1.4-0.6-1.3-1.4c0.1-0.8,1-0.8,1.7-0.9c0.7-0.1,1.4-0.1,2.1-0.2c0.5,0,0.5-0.3,0.6-0.6c0.1-2.2,0.6-4.4,1.4-6.5
			c0.7-1.9,1.6-3.6,2.5-5.4c0.2-0.3,0.5-0.7,0.8-0.9c0.3-0.2,0.7-0.3,1-0.2c0.5,0.2,0.7,0.8,0.6,1.3c-0.5,3.5-1.7,6.8-3,10.1
			c-0.3,0.7-0.6,1.5-0.9,2.3c0.7,0.2,1.4,0.3,2.1,0.6c0.4,0.2,0.8,0.4,1,0.8c0.3,0.4-0.1,1.2-0.7,1.3c-0.9,0.1-1.8,0.1-2.6,0.1
			c-0.4,0-0.7,0-1.1,0c0.1,0.3,0.2,0.7,0.2,1c-0.1,1.1-0.1,2.2-0.3,3.2c-0.9,3.5-2,6.9-3,10.3c-0.2,0.7-0.3,1.5-0.5,2.2
			c0.1,0,0.1,0.1,0.2,0.1c0.2-0.1,0.5-0.2,0.6-0.4c1.3-1.6,2.7-3.1,3.9-4.7c0.7-0.9,1.2-1.8,1.9-2.7c1-1.4,1.2-3.1,1.7-4.6
			c0.6-1.9,1.1-3.9,1.7-5.8c1.2-3.7,2.5-7.4,3.9-11c0.9-2.2,1.7-4.4,3.3-6.3c0.4-0.5,1-0.9,1.6-1.2c0.5-0.2,1.1,0,1.4,0.6
			c0.5,0.9,0.5,1.9,0.2,2.9c-0.8,2.3-1.5,4.6-2.5,6.9c-1.1,2.7-2.4,5.3-3.8,7.9c-1.7,3.2-3.5,6.4-5.3,9.6c-0.3,0.5-0.5,1.1-0.6,1.7
			c-0.2,0.6-0.4,1.2-0.5,1.8c0.1,0.1,0.1,0.1,0.2,0.2c0.1-0.1,0.2-0.3,0.2-0.4c1.2-2.3,2.3-4.7,3.6-6.9c1.2-1.9,2.6-3.8,4.6-5
			c0.5-0.3,1-0.5,1.5-0.6c1.3-0.1,1.9,0.6,2,1.9c0.1,2-0.5,3.9-1,5.9c-0.6,2.5-1.3,5-1.8,7.5c-0.2,0.9-0.2,1.8-0.3,2.7
			c0,0.2,0.1,0.5,0.1,0.8c1-0.5,1.6-1.3,2.1-2.1c1.4-2.4,2.7-4.8,4.1-7.2c1.5-2.7,3-5.4,5.3-7.6c0.9-0.9,1.7-1.9,2.8-2.7
			c1.7-1.2,3.7-1.7,5.7-0.9c0.5,0.2,0.9,0.6,1.3,0.9c1.2-4.7,2.3-9.4,4.2-13.9c0.6-1.3,1.4-2.6,2.2-3.8c0.5-0.7,1.5-1,2.1-0.7
			c1,0.5,1.1,1.4,1.2,2.3c0.1,2.2-0.5,4.4-1.3,6.4c-0.9,2.4-1.9,4.8-3.1,7c-1.5,2.7-3.2,5.3-4.8,8c-0.4,0.7-0.7,1.6-0.8,2.4
			c-0.4,2.1-0.8,4.3-1.2,6.4c-0.3,1.7-0.5,3.4-0.7,5.1c0,0.2,0.1,0.4,0.2,0.8c0.8-0.4,1.6-0.8,2.2-1.3c1.4-1.1,2.4-2.6,3.2-4.2
			c0.3-0.6,0.2-1.3,0.3-2c0.4-2.2,1.1-4.3,2.1-6.3c1.9-3.6,5-5.8,8.9-6.6c0.7-0.1,1.4,0,2,0c1,0,1.4,0.7,1.7,1.5
			c0.3,0.8,0,1.6-0.6,2.2c-0.8,0.9-1.9,1.1-3,1.4c-2.2,0.7-4.5,1.3-6,3.2c-1,1.2-1.8,2.5-2.6,3.8c-0.4,0.7-0.7,1.4-1.1,2.1
			c-0.7,1.3-0.5,2.6-0.2,3.9c0.6,2.5,1.2,2.7,3.4,1.3c2.4-1.6,4.2-3.7,5.6-6.1c1.2-2.1,2.1-4.3,3.2-6.4c0.9-1.8,1.8-3.7,2.7-5.5
			c0.2-0.3,0.7-0.7,1.1-0.6c0.6,0.1,0.8,0.7,0.6,1.2c-0.3,1.1-0.6,2.2-1,3.2c-1.2,3.2-2.5,6.4-3.7,9.7c-0.5,1.4-0.8,2.9-1.2,4.3
			c0,0.1,0,0.2,0,0.5c0.5-0.3,0.9-0.5,1.3-0.8c1.6-1.5,3.1-3.1,4.6-4.6c0.2-0.2,0.2-0.5,0.3-0.7c1-3.5,2.4-6.9,4.1-10.1
			c0.2-0.3,0.3-0.6,0.5-0.9c0.3-0.5,0.9-0.7,1.3-0.4c0.3,0.2,0.6,0.8,0.5,1.2c-0.5,3.8-2.1,7.1-4.5,10.1c-1.3,1.6-1.5,3.5-1.4,5.4
			c0,1,1,1.5,2.1,1c1.3-0.6,2.6-1.3,3.8-2.2c1.2-0.8,2.1-1.9,3.2-2.9c0.4-0.4,0.6-0.8,0.6-1.4c0.2-1.4,0.4-2.9,0.7-4.3
			c0.5-1.7,1.1-3.4,1.6-5.1c0.1-0.3,0.3-0.5,0.4-0.8c0.4-0.6,0.9-1,1.7-0.8c0.8,0.2,0.9,0.9,1,1.6c0.1,1.7-0.2,3.4-0.8,5
			c-0.8,2.1-2.1,3.8-3.4,5.5c-0.3,0.4-0.4,0.9-0.4,1.4c-0.3,1.9-0.6,3.8-0.9,5.7c0,0.1,0,0.3,0,0.4c1.9-0.3,3.7-0.7,5.6-1
			c0.7-0.1,1.4-0.2,2.1-0.2c1.2-0.1,2.4-0.1,3.6-0.2c2.4-0.1,4.8-0.1,7.2-0.2c4.1-0.1,8.1-0.1,12.2-0.1c0.1,0,0.2,0,0.3,0
			c0,0.4,0,0.7,0,1.2c-0.2,0-0.5,0-0.8,0c-2.1,0-4.2,0.1-6.4,0.1c-2,0-4,0-6,0.1c-2.4,0-4.8,0-7.2,0.2c-3.1,0.1-6.3,0.4-9.3,1.2
			c-0.4,0.1-0.9,0.2-1.3,0.4c-0.3,0.2-0.7,0.5-0.8,0.8c-0.8,2.7-1.5,5.6-2.5,8.3c-0.8,2.3-1.9,4.6-3,6.7c-0.4,0.8-1.2,1.4-1.9,2
			c-1,0.8-2.1,0.9-3.3,0.4c-1.8-0.7-3.1-1.8-4-3.5c-0.6-1.2-0.6-2.4,0-3.6c1.1-2,2.6-3.7,4.4-5.2c1.4-1.2,2.7-2.4,4.1-3.5
			c1.5-1.1,3-2,4.6-2.9c0.8-0.4,0.7-1.1,0.8-1.6c0.3-1.5,0.5-3.1,0.7-4.6c0-0.1-0.1-0.2-0.1-0.3c-0.7,0.6-1.3,1.2-2,1.8
			c-1.7,1.3-3.4,2.6-5.6,2.9c-1.1,0.2-2.4-0.5-2.6-1.6c-0.1-0.9-0.2-1.8-0.4-2.9c0,0.1,0,0.3-0.1,0.4c-1.4,1.5-2.8,2.8-4.6,3.8
			c-0.4,0.2-0.9,0.4-1.4,0c-0.6-0.5-0.5-1.1-0.4-1.7c0.7-3.5,1.8-6.8,3.2-10.1c0.4-0.8,0.6-1.6,0.8-2.5c-0.5,1-1,1.9-1.4,2.9
			c-1.2,2.9-2.6,5.5-4.6,7.9c-1.3,1.5-2.8,2.7-4.4,3.7c-0.9,0.5-1.9,0.9-2.9,0.2c-0.5-0.4-0.9-0.9-1.1-1.5c-0.3-0.7-0.5-1.5-0.7-2.2
			c-0.7,0.8-1.3,1.5-2,2.3c-0.8,0.9-1.8,1.4-2.9,1.7c-0.9,0.2-2.1-0.1-1.9-1.4c0.2-1.9,0.4-3.8,0.7-5.7c0.2-1.6,0.5-3.3,0.7-5
			c-0.5,0.7-1,1.5-1.5,2.2c-2.5,3.2-4.8,6.6-7.8,9.4c-0.9,0.9-1.9,0.9-2.4,0.1c-0.5-0.7-0.8-1.5-1-2.4c-0.5-1.8-0.3-3.7,0.3-5.5
			c0.1-0.2,0-0.4,0-0.8c-0.9,1.6-1.7,3.2-2.6,4.6c-0.8,1.3-1.8,2.5-2.8,3.7c-0.4,0.6-1.1,0.8-1.8,0.5c-0.6-0.3-0.9-0.9-0.9-1.6
			c-0.1-1.8,0.4-3.6,0.8-5.3c0.7-3,1.5-5.9,2.2-8.9c0.2-0.7,0.2-1.4,0.2-2.1c0-0.9-0.6-1.2-1.2-0.7c-1,0.8-2.1,1.7-3,2.7
			c-2.9,3.4-4.6,7.6-6.6,11.6c-0.5,1.1-1,2.2-1.5,3.2c-0.2,0.3-0.7,0.7-1,0.7c-0.5-0.1-0.5-0.6-0.4-1.2c0.4-1.6,0.8-3.3,1.3-5
			c-0.1-0.1-0.1-0.1-0.2-0.2c-0.1,0.1-0.2,0.3-0.3,0.4c-1.2,1.5-2.4,3.1-3.6,4.6c-0.4,0.5-0.9,0.8-1.5,1.1c-0.9,0.4-1.7-0.1-1.6-1.1
			c0.1-1.3,0.3-2.6,0.7-3.9c0.9-3.3,1.9-6.5,2.8-9.8c0.1-0.2,0-0.5-0.1-0.8c-0.4,0.7-0.8,1.3-1.2,2c-1.7,2.8-3.4,5.6-5.6,8.1
			c-1.3,1.4-2.7,2.7-4.1,4.1c-0.3,0.3-0.7,0.5-1.1,0.6c-0.9,0.3-1.8-0.6-1.5-1.7c0.4-1.3,0.8-2.6,1.3-3.8c0.9-2,1.9-3.9,2.8-5.8
			c0.7-1.5,1.4-3,2.2-4.6c0-0.1,0.1-0.2,0.1-0.5c-0.7,0-1.3,0.1-2,0.1c-0.8,0-1.5,0.1-2.3,0c-0.6-0.1-0.8,0-1.1,0.6
			c-1.3,3-2.8,5.8-4.8,8.4c-1.6,2.1-3.2,4.1-4.9,6c-0.4,0.5-1,0.9-1.5,1.2c-0.3,0.2-0.9,0.4-1.2,0.3c-0.3-0.2-0.5-0.8-0.7-1.2
			c-0.1-0.3,0-0.7,0-1.3c-0.7,0.6-1.3,1.1-1.9,1.5c-2.9,2-6,3.4-9.5,4.2c-2,0.4-4,0.6-6,0.6c-1.8,0-3.5-0.3-5.1-1.2
			c-0.5-0.3-0.9-0.3-1.5-0.3c-6.1,0.1-12.1,0.2-18.2,0.1c-2.2,0-4.3-0.4-6.5-0.6c-1-0.1-1.9-0.1-2.9-0.2c-1.7-0.1-3.4-0.1-5.1-0.2
			c-0.3,0-0.6-0.1-0.9-0.1C17.3,40.4,17.3,40,17.3,39.6z M71,15.2c0-1.3-1.2-2.8-2.4-3.7c-1.8-1.4-3.8-1.9-5.9-2.5
			c-0.5-0.1-1,0-1.5,0.4c-0.8,0.7-1.6,1.4-2.5,1.9c-1.1,0.5-1.7,1.3-2,2.4c-0.7,2.6-1.4,5.2-2.2,7.8c-1.3,4.6-3.2,9.1-3.8,13.9
			c-0.2,1.5,0,3,0.8,4.3c0.2,0.3,0.7,0.5,1,0.5c1.3-0.1,2.6-0.2,3.8-0.5c1.9-0.4,3.8-0.9,5.6-1.6c2.7-1.1,5-2.8,6.3-5.5
			c1.1-2.4,0.4-4.6-1.4-6.2c-1.9-1.6-4.1-2.5-6.4-3.3c-0.7-0.2-1.3-0.6-1.9-1c-0.4-0.3-0.3-0.7,0-0.9c0.2-0.2,0.5-0.3,0.8-0.4
			c1.6-0.3,3.3-0.5,4.9-0.8c1.7-0.3,3.3-0.7,4.8-1.5C70.4,18,71.1,17,71,15.2z M122,36c0.3,1,0.4,1.9,0.8,2.9
			c0.3,0.8,0.6,0.8,1.2,0.2c1.1-1.1,2.2-2.3,3.2-3.5c2-2.5,3.9-5.1,5.8-7.7c0.7-1,1.4-2.1,1.9-3.2c0.6-1.6,0-2.6-1.8-3
			c-1.6-0.4-3.1,0.1-4.5,0.8c-0.7,0.3-1.5,0.8-1.9,1.4c-1.3,1.9-2.4,3.9-3.2,6.1C122.8,31.8,122.2,33.8,122,36z M57.2,8.4
			c-0.2-0.1-0.5-0.2-0.7-0.2c-2.2,0-4.5,0.1-6.7,0.1c-2.7,0.1-5.4,0.5-8.1,1.2c-1.9,0.5-3.7,1.1-5.3,2.1c-1.2,0.8-1.1,1.9,0.1,2.6
			c1.1,0.6,2.3,0.8,3.5,0.9c2.4,0.1,4.8-0.3,7.1-0.7c2.9-0.6,5.8-1.5,8.5-2.8c0.4-0.2,0.7-0.7,0.9-1.1C56.9,9.9,57,9.2,57.2,8.4z
			 M166.3,43.5c-0.5,0.2-0.8,0.4-1.1,0.6c-1.4,1-2.9,2-4.3,3.1c-2.4,1.8-4.6,3.9-6.4,6.3c-0.9,1.2-1.2,2.6-0.1,4.1
			c0.4,0.5,0.8,1,1.3,1.3c1.6,1.2,3.2,2,4.9-0.5c0.9-1.3,1.6-2.8,2.3-4.3C164.2,50.8,165.4,47.3,166.3,43.5z M136.7,21.8
			c0.1,0.1,0.1,0.1,0.2,0.2c0.1-0.2,0.2-0.3,0.3-0.5c1-1.6,2-3.2,2.8-4.9c1-1.9,1.8-3.9,2.7-5.9c0.9-2.1,1.4-4.2,1.7-6.4
			c0.1-0.7,0-1.4-0.7-2c-0.6,0.8-1.1,1.5-1.6,2.3c-0.4,0.7-0.7,1.4-1,2.2c-0.8,2.3-1.6,4.5-2.4,6.8c-0.5,1.7-0.9,3.5-1.3,5.2
			C137.1,19.8,136.9,20.8,136.7,21.8z M108,24.7c0,0,0.1,0,0.1,0.1c0.1-0.1,0.2-0.2,0.2-0.3c1.5-2.9,3.1-5.8,4.5-8.8
			c1.2-2.5,2.3-5.1,3.3-7.7c0.6-1.5,1.2-3,0.8-4.9c-0.4,0.3-0.7,0.5-0.9,0.8c-0.9,1.6-2,3.2-2.7,5c-1.6,3.6-2.9,7.4-4,11.2
			C109,21.7,108.5,23.2,108,24.7z M141.5,30c0.1-0.2,0.3-0.4,0.4-0.6c0.8-1,1.5-2.2,2.4-3.1c1.5-1.4,3.3-2.2,5.3-2.8
			c1.1-0.3,2.2-0.7,3.2-1.2c0.3-0.1,0.4-0.7,0.4-1.1c0-0.2-0.4-0.6-0.6-0.6c-0.6-0.1-1.3-0.1-1.9,0c-2.4,0.6-4.5,1.6-6.2,3.5
			C143,25.9,142,27.8,141.5,30z M61,7.5c0,0,0,0.1,0.1,0.1c0.2-0.1,0.5-0.2,0.7-0.4c1-0.9,1.5-2.1,1.7-3.4c0.1-0.4-0.2-0.9-0.5-1.3
			c-0.1-0.2-0.7-0.2-1,0c-0.4,0.2-0.7,0.5-0.9,0.8c-0.7,1.2-1.3,2.4-2,3.6c-0.2,0.4,0,0.5,0.3,0.5C60,7.4,60.5,7.4,61,7.5z M79.8,23
			c-1.8,3.1-2.4,6.5-3,9.9C79,30,80.7,26.9,79.8,23z M172.1,23c-1.6,2.5-1.9,5.3-2.4,8.1C171.6,29,173.1,24.3,172.1,23z M101.9,18
			c1.7-3.4,2.9-6.9,3.6-10.7C103.3,10.5,102.5,14.2,101.9,18z M130,20.5c1.6-0.5,3.2-0.4,4.9,0.3C134.5,19.4,131.6,19.2,130,20.5z
			 M162.7,24.3c-0.1,0-0.2-0.1-0.2-0.1c-0.8,1.9-1.6,3.8-2.4,5.7c0.1,0,0.1,0.1,0.2,0.1C161.2,28.1,162.2,26.3,162.7,24.3z M58,10.5
			c0.8-0.6,1.5-1.1,2.3-1.7C58.8,8.2,58.2,8.7,58,10.5z M98.2,20.3c0,0.1,0,0.1,0,0.2c0.7,0.3,1.3,0.6,2,0.8c0.1,0,0.4-0.3,0.5-0.5
			c0-0.1-0.2-0.4-0.3-0.4C99.7,20.2,99,20.3,98.2,20.3z"/>
		<path d="M80.9,14.1c0.7,0,1,0.3,1,1c0,0.6-0.5,1.1-1,1.1c-0.5,0-1.1-0.5-1.1-1.1C79.9,14.4,80.2,14.1,80.9,14.1z"/>
	</g>
</g>
<g>
	<path d="M0,40.4v-8.6h2.6l1.6,5.9l1.5-5.9h2.6v8.6H6.7v-6.8L5,40.4H3.3l-1.7-6.8v6.8H0z"/>
	<path d="M12.3,40.4v-3.6l-3.1-5h2l2,3.4l2-3.4h2l-3.2,5v3.6H12.3z"/>
</g>
<g>
	<path d="M202.7,40.4v-7.1h-2.5v-1.5h6.8v1.5h-2.5v7.1H202.7z"/>
	<path d="M214.9,40.4H213l-0.8-2h-3.4l-0.7,2h-1.8l3.3-8.6h1.8L214.9,40.4z M211.7,37l-1.2-3.2l-1.2,3.2H211.7z"/>
	<path d="M215.8,31.8h3.4c0.7,0,1.2,0,1.5,0.1s0.6,0.2,0.9,0.4s0.5,0.4,0.7,0.7s0.3,0.6,0.3,1c0,0.4-0.1,0.8-0.3,1.1
		s-0.5,0.6-0.9,0.8c0.5,0.2,0.9,0.4,1.2,0.8s0.4,0.8,0.4,1.3c0,0.4-0.1,0.8-0.3,1.1c-0.2,0.4-0.4,0.7-0.7,0.9s-0.7,0.4-1.2,0.4
		c-0.3,0-1,0.1-2.1,0.1h-2.9V31.8z M217.6,33.2v2h1.1c0.7,0,1.1,0,1.3,0c0.3,0,0.5-0.1,0.7-0.3s0.3-0.4,0.3-0.7
		c0-0.3-0.1-0.5-0.2-0.6s-0.4-0.3-0.7-0.3c-0.2,0-0.7,0-1.5,0H217.6z M217.6,36.6v2.3h1.6c0.6,0,1,0,1.2-0.1c0.3,0,0.5-0.2,0.6-0.3
		s0.2-0.4,0.2-0.7c0-0.3-0.1-0.5-0.2-0.7s-0.3-0.3-0.5-0.4s-0.7-0.1-1.5-0.1H217.6z"/>
	<path d="M224.5,40.4v-8.5h1.7v7.1h4.3v1.4H224.5z"/>
	<path d="M231.8,40.4v-8.6h6.4v1.5h-4.6v1.9h4.3v1.4h-4.3v2.3h4.8v1.4H231.8z"/>
</g>
<path d="M249.7,10.5c0,0.2,0.1,0.5,0.1,0.7c0.1,1.4,0.1,2.7,0.2,4.1c0,0.5,0.2,0.8,0.7,0.9c1.7,0.6,3.3,1.2,5,1.8
	c0.7,0.3,0.8,0.6,0.1,1c-1.2,0.7-2.4,1.3-3.6,1.8c-1.2,0.4-1.6,1.1-1.8,2.3c-0.2,1.6-0.7,3.1-1.2,4.6c-0.1,0.2-0.2,0.4-0.4,0.5
	c-0.2-0.1-0.4-0.3-0.6-0.4c-1-1.7-2.1-3.4-3-4.9c-2.2,0.4-4.4,0.8-6.6,1.2c-0.2,0-0.4,0.1-0.5,0c-0.4,0-0.6-0.2-0.3-0.6
	c0.6-0.8,1.2-1.5,1.8-2.3c0.6-0.7,1.1-1.4,1.7-2c0.4-0.4,0.4-0.7,0.2-1.2c-0.6-1.4-1.2-2.9-1.8-4.4c-0.1-0.2,0-0.4-0.1-0.6
	c0.2,0,0.5,0,0.7,0c1.5,0.6,3.1,1.2,4.6,1.9c0.5,0.2,0.7,0.1,1-0.3c1.1-1.5,2.3-2.9,3.4-4.3C249.5,10.4,249.6,10.4,249.7,10.5z"/>
<path d="M254.8,6.2c-0.7-0.1-1.3-0.3-2-0.4c-0.2,0.7-0.4,1.4-0.7,2.2C252.1,8,252,8,251.9,8c-0.3-0.5-0.8-1-1-1.5
	c-0.3-0.6-0.6-0.8-1.2-0.8c-0.7,0-1.4-0.3-2.1-0.5c0-0.1,0-0.2,0-0.3c0.5-0.4,0.9-0.8,1.4-1.1c0.5-0.4,0.7-0.7,0.6-1.4
	c-0.1-0.7,0-1.5,0-2.2c0.1,0,0.2-0.1,0.3-0.1c0.4,0.4,0.9,0.8,1.3,1.3c0.4,0.5,0.7,0.6,1.3,0.3c0.7-0.3,1.4-0.4,2.1-0.5
	c0.1,0.1,0.2,0.2,0.3,0.3c-0.4,0.8-0.8,1.7-1.2,2.6c0.4,0.6,0.9,1.3,1.4,1.9C255,6,254.9,6.1,254.8,6.2z"/>
<path d="M81.6,56.8c-1.2,1.1-2.3,2.1-3.5,3.1c-2.9,2.5-6,4.8-9.6,6.5c-0.3,0.1-0.7,0.2-1,0.3c0-0.3-0.1-0.7,0-1
	c1.1-3.8,2.2-7.5,3.2-11.3c0.2-0.7,0.3-1.4,0.5-2.1c0.2-0.5,0.1-0.8-0.5-1.1c-0.9-0.5-1.7-1-2.6-1.6c-0.1,0.1-0.2,0.1-0.3,0.2
	c0.4,0.8,0.8,1.6,1.3,2.6c-1.1-0.4-1.3-1.3-1.6-2.1c-0.6,0.5-1.1,1.3-2.3,1.3c0.8-0.7,1.5-1.3,2.3-2c-1-0.2-1.7-0.3-2.4-0.5
	c-0.7-0.2-1.4-0.6-1-1.5c0.3-0.8,1.1-0.7,1.8-0.5c0.4,0.1,0.7,0.3,0.8,0.4c0.5-0.5,0.9-1.1,1.4-1.4c0.7-0.4,1.5,0.2,1.3,1
	c-0.1,0.8-0.5,1.5-0.9,2.4c10.2,5.9,21.2,9.9,33.1,11.1c16.2,1.6,31.4-1.7,45.7-9.4c-0.4-0.8-1.1-1.5-0.5-2.4c0.2-0.2,0.7-0.3,1-0.2
	c1,0.3,1.1,1.1,1.2,1.8c0.7,0.1,1.3,0.1,1.9,0.2c0.2,0,0.4,0.4,0.5,0.6c0.2,0.7-0.4,1-2.4,1.4c1,0.4,1.8,0.7,2.7,1.1
	c-0.8,0.3-0.8,0.3-3.2-0.5c0.4,0.4,0.7,0.8,1.1,1.1c0.4,0.4,0.8,0.7,1.3,1.1c-1.2,0.2-2-0.6-3.5-3.2c-0.7,0.4-1.4,0.7-2.1,1.1
	c0.4,2.1,0.8,4.2,1.1,6.3c0.4,3.3,0.7,6.6,1.1,9.9c0,0.3-0.1,0.6-0.2,1c-0.3-0.1-0.7-0.2-1-0.3c-4.5-3.2-8.7-6.9-12.3-11.1
	c-0.1-0.1-0.2-0.2-0.5-0.6c0,0.6,0,0.9,0,1.2c-0.1,4.1-0.2,8.2-0.4,12.3c0,0.6-0.1,1.3-0.3,1.9c0,0.3-0.2,0.5-0.4,0.7
	c-0.3-0.1-0.6-0.2-0.8-0.4c-2.1-2.4-4.2-4.9-6.2-7.4c-1.3-1.6-2.3-3.5-3.6-5.4c-0.7,1.5-1.5,2.9-2,4.4c-1.3,3.3-2.5,6.7-3.7,10.1
	c-0.1,0.2-0.2,0.4-0.3,0.6c-0.1,0.2-0.3,0.4-0.5,0.6c-0.2-0.2-0.4-0.3-0.6-0.5c-1.1-2.1-2.3-4.1-3.3-6.2c-1.2-2.6-2.3-5.3-3.5-8.1
	c-0.2,0.3-0.4,0.6-0.5,0.9c-2.4,4.1-4.9,8.2-7.3,12.3c-0.2,0.3-0.5,0.5-0.7,0.8c-0.2-0.3-0.4-0.6-0.5-0.9c-1.4-4.7-2.7-9.4-4.1-14
	c-0.1-0.2-0.2-0.4-0.3-0.8c-1,1.2-1.9,2.3-2.7,3.4c-2.2,2.8-4.3,5.7-6.5,8.5c-0.4,0.5-0.9,0.9-1.3,1.3c-0.5,0.4-0.8,0.4-0.9-0.3
	c-0.4-2.6-0.8-5.3-1-7.9c-0.3-2.6-0.3-5.2-0.5-7.8C81.7,57.1,81.7,57,81.6,56.8z M67.7,48.7c0.1,0,0.3,0,0.4,0
	c0.3-0.5,0.6-0.9,0.8-1.4c0.1-0.3-0.1-0.7-0.2-1c-0.3,0.2-0.9,0.3-1,0.6C67.6,47.5,67.7,48.1,67.7,48.7z M67.1,48.9
	c0-0.1,0.1-0.2,0.1-0.3c-0.4-0.7-0.9-1.2-1.8-1.2c-0.2,0-0.5,0.2-0.7,0.3c0.1,0.2,0.2,0.5,0.4,0.6C65.8,48.5,66.4,48.7,67.1,48.9z
	 M148.6,51.3c0,0.1,0.1,0.3,0.1,0.4c0.6,0,1.1,0.1,1.7,0c0.2,0,0.3-0.5,0.5-0.7c-0.3-0.1-0.6-0.4-0.8-0.4
	C149.5,50.8,149,51.1,148.6,51.3z M148.1,50.9c0.1,0,0.3,0,0.4,0c0-0.5,0.2-1,0-1.5c-0.1-0.3-0.6-0.5-0.9-0.7
	c-0.1,0.1-0.2,0.2-0.3,0.3C147.6,49.6,147.8,50.3,148.1,50.9z"/>
<path d="M270,20.4c-0.9-0.5-1.9-1-2.8-1.5c-1.2,0.9-2.4,1.8-3.7,2.7c-0.2-0.1-0.3-0.2-0.5-0.3c0.2-1.6,0.3-3.1,0.5-4.7
	c-1.3-0.9-2.8-1.9-4.2-2.9c0.1-0.2,0.1-0.4,0.2-0.6c1.4-0.1,2.9-0.2,4.3-0.3c0.2-1.1,0.4-2.3,0.7-3.5c0.1-0.3,0.3-0.5,0.5-0.7
	c0.3,0.2,0.7,0.3,0.8,0.6c1,2.2,2.4,3.4,5,2.6c0.5-0.1,1,0.1,1.9,0.2c-0.9,1.1-1.5,2.1-2.2,2.8c-0.6,0.6-0.8,1.1-0.6,1.9
	c0.3,1.1,0.4,2.2,0.5,3.3C270.2,20.2,270.1,20.3,270,20.4z"/>
<path d="M84.1,14.5c0,1.2-0.9,2-2.2,2c-1.2,0-2.1-0.9-2.1-2.1c0-1.3,0.8-2.2,2-2.2C83.1,12.2,84.1,13.2,84.1,14.5z"/>
</svg>
