<?xml version="1.0" encoding="utf-8"?>
<!-- Generator: Adobe Illustrator 24.0.0, SVG Export Plug-In . SVG Version: 6.00 Build 0)  -->
<svg version="1.1" id="Layer_1" xmlns="http://www.w3.org/2000/svg" xmlns:xlink="http://www.w3.org/1999/xlink" x="0px" y="0px"
	 viewBox="0 0 64.3 65.5" style="enable-background:new 0 0 64.3 65.5;" xml:space="preserve">
<style type="text/css">
	.st0{stroke:#000000;stroke-width:2;stroke-linecap:round;stroke-linejoin:round;stroke-miterlimit:10;}
</style>
<path class="st0" d="M60.9,7.3C59,4.6,56.7,2.7,54,1.8C52.3,1.2,50.7,1,48.8,1C37,1,25.2,1.1,13.4,1.3C7.4,1.3,1,6.9,1,14.3
	C0.9,26.6,1,38.7,1,51c0,4.2,2,7.9,5,10.3c2.4,2,5.5,3.2,8.5,3.2c5.9-0.2,11.7,0,17.6,0s11.6-0.2,17.5,0c7.1,0.2,13.7-5.8,13.7-13.7
	c-0.1-12-0.1-23.9-0.1-35.8C63.2,12.3,62.5,9.7,60.9,7.3z M59.4,50c0,5.5-2.9,9.2-7.4,10.4c-1,0.3-2.1,0.4-3.3,0.4
	c-11.4-0.1-22.8,0-34.1,0c-5.4,0-9.8-4.4-9.8-9.8c-0.1-8.7-0.1-17.4,0-26.2c0-3.4,0-6.8,0-10.1c0.1-5.9,4.8-9.9,9.8-9.8
	c5.9,0.1,11.7,0,17.6,0H50c4,0,7.8,3.1,9,6.9c0.2,0.6,0.3,1.1,0.3,1.7c0.1,1.7,0.2,3.3,0.2,5c0,5.3,0.1,10.6,0.1,15.8
	C59.5,39.4,59.5,44.7,59.4,50z"/>
<path d="M52.6,14.5c0,1.7-1.9,3.6-3.8,3.6l0,0C50.7,18.2,52.6,16.4,52.6,14.5z"/>
<path d="M49.5,11.5c0.6,0,1.2,0.2,1.7,0.5c-0.1-0.1-0.3-0.2-0.4-0.3C50.4,11.6,50,11.5,49.5,11.5L49.5,11.5z"/>
<path class="st0" d="M52.6,14.5c0-1.1-0.6-2-1.4-2.6c-0.5-0.3-1.1-0.5-1.7-0.5c-2.3,0-4,1.4-4,3.2c0,1.7,1.7,3.5,3.4,3.5
	C50.7,18.1,52.6,16.3,52.6,14.5z"/>
<path d="M45.5,15.3c0-0.1,0-0.2-0.1-0.3C45.4,15.1,45.4,15.2,45.5,15.3z"/>
<path d="M48.8,18.2L48.8,18.2L48.8,18.2L48.8,18.2z"/>
<path d="M49.4,11.5C49.5,11.5,49.5,11.5,49.4,11.5C49.5,11.5,49.5,11.5,49.4,11.5c0.5,0,0.9,0.1,1.3,0.2
	C50.3,11.5,49.9,11.4,49.4,11.5c-2.2-0.1-4.1,1.3-4.1,3.2l0,0C45.4,12.9,47.1,11.5,49.4,11.5z"/>
<path d="M46,16.5c0-0.1-0.1-0.1-0.1-0.2C45.9,16.4,46,16.4,46,16.5z"/>
<path d="M45.7,15.9c-0.1-0.1-0.1-0.3-0.2-0.4C45.6,15.7,45.6,15.8,45.7,15.9z"/>
<path d="M45.5,15.3c0,0.1,0.1,0.1,0.1,0.2s0.1,0.3,0.2,0.4c0.1,0.1,0.1,0.3,0.2,0.4c0,0.1,0.1,0.1,0.1,0.2c0.7,0.9,1.7,1.7,2.8,1.7
	l0,0c-1.7,0-3.4-1.9-3.4-3.5c0-1.8,1.7-3.1,4-3.2l0,0c-2.3,0-4,1.4-4.1,3.2c0,0.1,0,0.2,0,0.3S45.4,15.2,45.5,15.3z"/>
<path class="st0" d="M38.6,19.5c-2-1-4.2-1.6-6.5-1.7c-6.6-0.3-15,6.8-14.9,14.7c-0.1,4.6,1.9,8.9,5.1,11.7c2.5,2.2,5.9,3.6,9.6,3.6
	c8.8,0,15-6.1,15.3-14.7c0.2-4.1-1.4-7.8-4.2-10.6C41.7,21.4,40.3,20.3,38.6,19.5v-0.1c-0.1,0-0.1-0.1-0.2-0.1
	C38.4,19.4,38.5,19.4,38.6,19.5z M43.1,32.9c0,2-0.5,3.9-1.3,5.5c-0.1,0.1-0.1,0.2-0.2,0.3c-0.1,0.1-0.1,0.2-0.2,0.3
	c-0.1,0.1-0.2,0.3-0.3,0.4c-2,3-5.6,4.7-9.3,4.6c0,0,0,0-0.1,0l0,0c-6.6,0.3-10.7-5.7-10.9-10.6c-0.2-6.9,6.1-11.6,11-11.4l0,0
	c0,0,0,0,0.1,0C38.2,22.1,43,26.8,43.1,32.9z"/>
</svg>
