<?xml version="1.0" encoding="utf-8"?>
<!-- Generator: Adobe Illustrator 24.0.0, SVG Export Plug-In . SVG Version: 6.00 Build 0)  -->
<svg version="1.1" id="Layer_1" xmlns="http://www.w3.org/2000/svg" xmlns:xlink="http://www.w3.org/1999/xlink" x="0px" y="0px"
	 viewBox="0 0 64.5 66.6" style="enable-background:new 0 0 64.5 66.6;" xml:space="preserve">
<path d="M64.1,15.3c-0.4-3.6-2-6.8-4.4-9.5c-2-2.2-4.4-3.8-7-4.7c-2-0.7-4.2-1.1-6.5-1.1c-9.3,0-18.7,0-28,0c-2.9,0-5.7,0.5-8.3,1.8
	c-6.2,3.3-9.7,8.6-9.8,15.5c-0.2,10.6,0,21.2,0,31.8c0,0.8,0,1.7,0.2,2.4c0.7,3.5,2,6.8,4.6,9.4c0.9,0.9,1.9,1.8,2.8,2.5
	c2.8,2,6,3.2,9.7,3.2c10.1,0,20.2,0,30.4,0c1,0,2.1-0.2,3.2-0.4c3.5-0.8,6.4-2.6,8.8-5.3c3-3.3,4.6-7,4.6-11.3
	c0.1-5.4,0.1-10.8,0.1-16.2c0-4.2,0-8.5,0-12.6C64.3,18.9,64.3,17.1,64.1,15.3z M23.8,34.8C23.8,34.8,23.8,34.9,23.8,34.8
	c0,0.3,0,13.2,0,13.2c0,0.2,0,0.7,0,1c-0.1,0-0.4,0.1-0.8,0.1c-0.6,0-1.1,0-1.7,0c-1.9,0-3.7-0.1-5.6-0.2c0,0,0,0-0.1-0.1
	c-0.1-1.3-0.1-2.6-0.1-4c0-0.3,0-0.6,0-0.8c0-1.6,0-3.3,0-5.3c0.1-3.8,0.1-7.9,0.2-12.5c0-0.6,0.1-0.7,0.1-0.7c0.1,0,0.3-0.1,1-0.2
	c0.8,0,1.8,0,2.8,0c1.2,0,2.4,0,3.3,0c0.2,0,0.8,0,0.8,1.2C23.8,29.2,23.8,32,23.8,34.8z M19.7,21.8c-1.3,0-2.5-0.6-3.3-1.4
	c-0.7-0.8-1.2-2-1.1-3c0.3-4.1,2.5-4.6,4.2-4.6h0.1h0.1c1.2,0,2.4,0.6,3.3,1.5c0.9,1,1.4,2.1,1.3,3.3C24,19.9,22.1,21.8,19.7,21.8z
	 M52,47.8c0,0.4-0.1,0.7-0.1,1.1l0,0c0,0,0,0-0.1,0c0,0.1,0,0.1,0,0.2h-0.1c-1.2,0-2.3,0-3.5,0s-2.3,0-3.5,0c-0.1,0-0.2,0-0.2,0V49
	c0-0.6,0-1.3,0-1.9c0-0.7,0-1.2,0-1.9c0-0.8,0-1.8,0-2.7c0.1-2.1,0.1-4.5,0-6.7c-0.1-2.5-1.6-4.2-3.9-4.2c-0.7,0-1.6,0.2-2.4,0.6
	c-0.7,0.3-1.2,0.6-1.6,1c-1.1,1.1-1.3,2.5-1.3,3.6c0,2.3-0.1,4.7-0.2,7.3c0,1-0.2,2.1-0.3,3.2c0,0.4-0.1,0.8-0.1,1.2
	c0,0.2,0,0.2-0.1,0.3l0,0c0,0.1-0.1,0.2-0.1,0.2c0,0.1-0.1,0.1-0.3,0.1c-0.6,0.1-1,0.1-1.6,0.1c-0.9,0-2,0.1-3,0.1
	c-0.7,0-1.2-0.1-1.9-0.2c-0.2,0-0.2,0-0.2-0.2v-0.2c-0.1-1.4-0.1-2.8-0.1-4.2c0-2,0.1-3.9,0.1-5.9c0-1.2,0.1-2.4,0.1-3.6
	c0.1-1.8,0.1-3.4,0.1-5.1c0.1-1.4,0.1-2.7,0.1-4.1c0-0.3,0-0.5,0.1-0.6c0.1-0.3,0.2-0.3,0.5-0.3h0.4c2.1,0,4.4,0.1,6.4,0.2
	c0.1,0.1,0.2,0.2,0.2,0.2c0.1,0.2,0.3,0.3,0.5,0.4l0.6,0.5l0.7-0.2c0.6-0.2,1.1-0.5,1.7-0.7c1.2-0.5,2.3-0.9,3.4-1.2
	c0.7-0.2,1.4-0.3,2-0.3c0.9,0,1.7,0.2,2.5,0.5c0.5,0.2,1,0.5,1.4,0.9s0.9,0.8,1.3,1.3c0.2,0.3,0.4,0.5,0.6,0.8
	c1.1,1.8,1.7,3.8,1.9,6.5c0.2,3.6,0.3,7,0.4,10.1C52.2,45.4,52.1,46.6,52,47.8z"/>
</svg>
